<?xml version="1.0" encoding="utf-8"?><svg viewBox="0 0 190 165" xmlns="http://www.w3.org/2000/svg" xmlns:xlink="http://www.w3.org/1999/xlink"><style>:root>svg{display:none}:root>svg:target{display:block}</style><svg fill="none" viewBox="0 0 190 165" id="about-us2" xmlns="http://www.w3.org/2000/svg"><circle cx="60" cy="105" r="60" fill="#F90"/><g clip-path="url(#aclip0_406480_4611)" fill-rule="evenodd" clip-rule="evenodd" fill="#000"><path d="M101.131 15.49a.973.973 0 011.332-.359l57.049 33.041c.466.27.626.87.357 1.338a.973.973 0 01-1.332.359l-57.049-33.041a.982.982 0 01-.357-1.338z"/><path d="M123.502 1.875a13.998 13.998 0 0113.996 0l.002.001L183 27.881a14.006 14.006 0 017 12.113v52.012a14.004 14.004 0 01-7 12.113l-.004.002-45.496 26.003-.001.001a14.004 14.004 0 01-13.998 0l-.001-.001-45.496-26.003-.004-.002a14 14 0 01-7-12.113V39.994a14.005 14.005 0 017-12.113l.004-.002L123.5 1.876l.002-.001zM130.5 2c-2.106 0-4.176.555-6 1.608l-.004.003L79 29.614h-.002A12.002 12.002 0 0073 39.996v52.01a12.004 12.004 0 005.998 10.38l.002.001 45.5 26.006a12.003 12.003 0 0012 0l.004-.003L182 102.386l.002-.001A12.004 12.004 0 00188 92.005v-52.01a12.004 12.004 0 00-5.998-10.38l-.002-.001L136.504 3.61l-.004-.003a11.999 11.999 0 00-6-1.608z"/><path d="M73.133 33.488a.993.993 0 011.349-.357L130 64.896l55.518-31.765a.993.993 0 011.349.357.97.97 0 01-.36 1.334l-56.013 32.047a.996.996 0 01-.988 0L73.493 34.822a.97.97 0 01-.36-1.334z"/><path d="M130 65a.99.99 0 011 .978v64.045a.99.99 0 01-1 .977.99.99 0 01-1-.977V65.978a.99.99 0 011-.978z"/></g><defs><clipPath id="aclip0_406480_4611"><path fill="#fff" transform="translate(71)" d="M0 0h119v132H0z"/></clipPath></defs></svg><svg fill="none" viewBox="0 0 190 165" id="about-us3" xmlns="http://www.w3.org/2000/svg"><circle cx="64" cy="101" r="63.468" fill="#F90" stroke="#F90" stroke-width="1.065"/><path fill-rule="evenodd" clip-rule="evenodd" d="M121.677 50.032c-9.406 0-17.032 7.626-17.032 17.032 0 9.407 7.626 17.033 17.032 17.033 9.407 0 17.033-7.626 17.033-17.032 0-9.407-7.626-17.033-17.033-17.033zm-19.161 17.032c0-10.582 8.579-19.16 19.161-19.16 10.583 0 19.162 8.578 19.162 19.16 0 10.583-8.579 19.162-19.162 19.162-10.582 0-19.161-8.579-19.161-19.162z" fill="#000"/><path fill-rule="evenodd" clip-rule="evenodd" d="M122.21 2.135a11.03 11.03 0 00-11.029 11.029v1.032a11.047 11.047 0 01-6.695 10.11 1.07 1.07 0 01-.421.086h-.265a11.045 11.045 0 01-11.973-2.3l-.008-.009-.363-.363a11.031 11.031 0 00-15.606 0h-.001a11.03 11.03 0 000 15.607l.371.371a11.047 11.047 0 012.223 12.154 11.047 11.047 0 01-10.097 7.2H67.776a11.029 11.029 0 100 22.058h1.033a11.046 11.046 0 0110.107 6.69 11.046 11.046 0 01-2.212 12.179l-.008.008-.363.363a11.029 11.029 0 000 15.607 11.02 11.02 0 007.804 3.235 11.03 11.03 0 007.803-3.235l.371-.371a11.045 11.045 0 0112.154-2.223 11.045 11.045 0 017.199 10.098V122.03a11.029 11.029 0 0022.058 0v-1.032a11.047 11.047 0 016.69-10.107 11.046 11.046 0 0112.18 2.211l.008.008.363.363a11.036 11.036 0 007.803 3.235 11.03 11.03 0 007.803-3.234l.001-.001a11.028 11.028 0 000-15.606l-.371-.372a11.044 11.044 0 01-2.212-12.18 11.045 11.045 0 0110.107-6.69h.549a11.027 11.027 0 0011.029-11.028 11.027 11.027 0 00-11.029-11.03h-1.033a11.045 11.045 0 01-10.109-6.694 1.066 1.066 0 01-.086-.42v-.265a11.048 11.048 0 012.3-11.973l.008-.009.363-.363a11.038 11.038 0 003.235-7.803 11.03 11.03 0 00-3.235-7.803 11.037 11.037 0 00-7.803-3.235 11.028 11.028 0 00-7.803 3.234l-.372.372a11.047 11.047 0 01-12.18 2.211 11.043 11.043 0 01-6.689-10.107v-.548a11.027 11.027 0 00-11.029-11.03zm-9.308 1.72a13.16 13.16 0 0118.616 0 13.166 13.166 0 013.855 9.309v.542a8.91 8.91 0 005.401 8.154l.011.004a8.91 8.91 0 009.826-1.778l.004-.004.354-.355a13.172 13.172 0 019.314-3.86 13.162 13.162 0 019.312 3.86 13.153 13.153 0 013.861 9.313 13.154 13.154 0 01-3.861 9.313l-.354.354a8.91 8.91 0 00-1.783 9.83c.06.136.091.283.091.431v.259a8.913 8.913 0 008.068 5.206h1.026a13.165 13.165 0 010 26.327h-.542a8.913 8.913 0 00-8.154 5.402l-.005.01a8.918 8.918 0 001.778 9.826l.005.004.354.355a13.156 13.156 0 013.861 9.313 13.154 13.154 0 01-3.861 9.313 13.16 13.16 0 01-14.353 2.856 13.16 13.16 0 01-4.272-2.856c-.001-.001 0 0 0 0l-.355-.355-.004-.004a8.913 8.913 0 00-9.826-1.778l-.011.004a8.913 8.913 0 00-5.401 8.154v1.026a13.163 13.163 0 01-26.327 0v-.532a8.914 8.914 0 00-5.833-8.143l-.034-.013a8.908 8.908 0 00-9.86 1.77l-.353.354a13.153 13.153 0 01-9.313 3.861 13.154 13.154 0 01-9.314-3.861 13.158 13.158 0 01-3.86-9.312 13.163 13.163 0 013.86-9.313l.355-.355a8.913 8.913 0 001.782-9.83l-.004-.01a8.913 8.913 0 00-8.154-5.402h-1.026a13.164 13.164 0 010-26.327h.532a8.911 8.911 0 008.144-5.833 8.912 8.912 0 00-1.753-9.889l-.359-.358a13.163 13.163 0 010-18.627 13.164 13.164 0 0118.626.001l.358.359a8.913 8.913 0 009.826 1.778c.136-.06.283-.09.431-.09h.259a8.91 8.91 0 005.206-8.068v-1.026c0-3.492 1.387-6.84 3.856-9.308z" fill="#000"/></svg></svg>